<svg width="20px" height="20px" viewBox="0 0 20 20" xmlns="http://www.w3.org/2000/svg">
  <path d="m14.2197,3.21967c-0.2929,0.29289 -0.2929,0.76777 0,1.06066l0.7196,0.71967l-3.8125,0c-0.6708,0 -1.2826,0.38343 -1.575,0.98713l-0.2104,0.43431c-0.0533,0.11013 -0.0533,0.23862 0,0.34874l0.5689,1.17452c0.0729,0.1504 0.2871,0.1504 0.36,0l0.6315,-1.30368c0.0417,-0.08624 0.1291,-0.14102 0.225,-0.14102l3.8125,0l-0.7196,0.71967c-0.2929,0.29289 -0.2929,0.76773 0,1.06063c0.2929,0.2929 0.7677,0.2929 1.0606,0l2,-1.99997c0.2929,-0.29289 0.2929,-0.76777 0,-1.06066l-2,-2c-0.2929,-0.29289 -0.7677,-0.29289 -1.0606,0z"/>
  <path d="m7.7836,13.0786c0.0533,-0.1102 0.0533,-0.2387 0,-0.3488l-0.56891,-1.1745c-0.07286,-0.1504 -0.28714,-0.1504 -0.36,0l-0.63145,1.3037c-0.04178,0.0862 -0.12917,0.141 -0.225,0.141l-3.24824,0c-0.41421,0 -0.75,0.3358 -0.75,0.75c0,0.4142 0.33579,0.75 0.75,0.75l3.24824,0c0.67079,0 1.28255,-0.3834 1.57497,-0.9871l0.21039,-0.4343z"/>
  <path d="m14.2197,16.2803c-0.2929,-0.2929 -0.2929,-0.7677 0,-1.0606l0.7196,-0.7197l-3.8125,0c-0.6708,0 -1.2826,-0.3834 -1.575,-0.9871l-3.32856,-6.87188c-0.04178,-0.08624 -0.12917,-0.14102 -0.225,-0.14102l-3.24824,0c-0.41421,0 -0.75,-0.33579 -0.75,-0.75c0,-0.41421 0.33579,-0.75 0.75,-0.75l3.24824,0c0.67079,0 1.28255,0.38343 1.57497,0.98713l3.32859,6.87187c0.0417,0.0862 0.1291,0.141 0.225,0.141l3.8125,0l-0.7196,-0.7197c-0.2929,-0.2929 -0.2929,-0.7677 0,-1.0606c0.2929,-0.2929 0.7677,-0.2929 1.0606,0l2,2c0.2929,0.2929 0.2929,0.7677 0,1.0606l-2,2c-0.2929,0.2929 -0.7677,0.2929 -1.0606,0z"/>
</svg>
