<svg width="20px" height="20px" viewBox="0 0 20 20" xmlns="http://www.w3.org/2000/svg">
  <path d="m17.43629,11.60001c0.3107,-0.00214 0.56372,0.25234 0.56372,0.56702l0,2.56355c0,0.31316 -0.25067,0.56702 -0.55989,0.56702c-0.30922,0 -0.55988,-0.25386 -0.55988,-0.56702l0.0003,-0.90017c-1.45787,2.44493 -4.16203,4.16959 -7.07606,4.16959c-3.52712,0 -6.48444,-2.17679 -7.76659,-5.53217c-0.1116,-0.29205 0.0317,-0.62043 0.32008,-0.73345c0.28838,-0.11302 0.61262,0.03211 0.72422,0.32416c1.1195,2.92971 3.67048,4.80741 6.72229,4.80741c2.69716,0 5.21663,-1.74514 6.39,-4.12255l-1.17726,0.00747c-0.30921,0.00215 -0.56159,-0.24997 -0.56373,-0.56312c-0.0021,-0.31315 0.24684,-0.56875 0.55605,-0.5709l2.42675,-0.01686zm-7.24076,-9.60001c3.52712,0 6.48444,2.17679 7.76659,5.53217c0.1116,0.29205 -0.0317,0.62043 -0.32008,0.73345c-0.28838,0.11302 -0.61262,-0.03211 -0.72422,-0.32416c-1.1195,-2.92971 -3.67048,-4.80741 -6.72229,-4.80741c-2.69716,0 -5.21663,1.74514 -6.39,4.12255l1.17726,-0.00747c0.30921,-0.00215 0.56159,0.24997 0.56373,0.56312c0.0021,0.31315 -0.24684,0.56875 -0.55605,0.5709l-2.42675,0.01686c-0.3107,0.00214 -0.56372,-0.25234 -0.56372,-0.56702l0,-2.56355c0,-0.31316 0.25067,-0.56702 0.55989,-0.56702c0.30922,0 0.55988,0.25386 0.55988,0.56702l-0.0003,0.90017c1.45787,-2.44493 4.16203,-4.16959 7.07606,-4.16959z"/>
</svg>
